<svg width="382" height="452" viewBox="0 0 382 452" fill="none" xmlns="http://www.w3.org/2000/svg">
<path d="M170.909 451.026C169.263 450.204 167.618 449.587 165.973 449.175C164.327 448.764 162.476 448.147 160.42 447.324C138.619 439.92 122.989 428.197 113.528 412.155C79.7986 407.219 52.6506 395.085 32.084 375.753C10.6946 354.775 0 327.421 0 293.692C0 248.445 16.4533 209.368 49.3599 176.462C81.8552 143.966 120.932 127.719 166.59 127.719C198.674 127.719 223.971 136.151 242.481 153.016C251.53 146.023 262.636 137.385 275.799 127.102C289.373 116.407 305.003 104.067 322.691 90.0819V78.3589C322.691 26.1196 334.825 0 359.094 0C364.852 0 369.994 2.26232 374.519 6.78698C379.455 10.9003 381.923 15.8363 381.923 21.5949C381.923 38.0483 365.264 60.8773 331.946 90.0819C332.768 95.8405 334.619 104.684 337.499 116.613C340.378 128.13 344.491 142.527 349.839 159.803C358.477 188.596 362.796 212.453 362.796 231.375C362.796 284.848 338.938 329.478 291.224 365.264C246.8 397.759 197.234 414.007 142.527 414.007C139.236 414.007 135.74 413.801 132.038 413.389C128.336 413.389 124.84 413.184 121.549 412.772C129.775 426.346 142.321 436.013 159.186 441.771C162.888 443.417 165.561 444.239 167.207 444.239C168.441 444.239 170.909 443.622 174.611 442.388C177.901 441.154 180.164 440.537 181.398 440.537C183.866 440.537 185.1 441.771 185.1 444.239C185.1 448.764 180.369 451.026 170.909 451.026ZM330.712 82.6779C361.15 55.9413 376.37 34.552 376.37 18.51C376.37 10.2833 371.022 6.16999 360.328 6.16999C340.172 6.16999 330.095 25.914 330.095 65.4019C330.095 68.2812 330.095 71.1606 330.095 74.0399C330.095 76.5079 330.3 79.3872 330.712 82.6779ZM116.613 402.901C141.704 402.901 168.646 395.497 197.44 380.689C210.191 374.107 222.325 366.909 233.843 359.094C245.771 350.867 256.877 341.818 267.161 331.946C282.38 317.549 292.663 304.592 298.011 293.075C318.166 253.998 328.244 213.687 328.244 172.143C328.244 175.022 327.832 170.292 327.01 157.952C326.187 145.612 324.953 125.457 323.308 97.4859C314.67 104.067 303.975 112.5 291.224 122.783C278.884 132.655 264.281 144.378 247.417 157.952C261.402 171.937 268.395 189.213 268.395 209.78C268.395 237.339 258.523 260.785 238.779 280.118C218.623 299.862 194.766 309.734 167.207 309.734C151.576 309.734 138.619 306.237 128.336 299.245C116.407 326.393 110.443 350.044 110.443 370.2C110.443 376.37 111.06 382.128 112.294 387.475C113.528 393.234 114.968 398.376 116.613 402.901ZM109.826 402.901C106.124 394.263 104.273 384.185 104.273 372.668C104.273 350.044 110.443 323.925 122.783 294.309C112.911 284.848 107.975 273.331 107.975 259.757C107.975 254.821 109.209 249.062 111.677 242.481C114.968 233.843 118.258 229.524 121.549 229.524C122.372 229.524 123.194 229.935 124.017 230.758C123.194 233.226 122.166 234.665 120.932 235.077H121.549C115.79 243.303 112.911 251.941 112.911 260.991C112.911 271.685 116.819 281.146 124.634 289.373C143.144 247.828 178.93 205.255 231.992 161.654C213.893 144.789 191.064 136.357 163.505 136.357C124.839 136.357 89.6706 153.633 57.9979 188.185C27.148 221.503 11.723 257.906 11.723 297.394C11.723 324.953 21.1836 349.016 40.1049 369.583C49.5656 379.866 60.0546 387.681 71.5719 393.028C83.0892 398.787 95.8405 402.078 109.826 402.901ZM164.739 305.415C186.951 305.415 207.517 295.337 226.439 275.182C245.36 255.026 254.821 234.048 254.821 212.248C254.821 195.794 248.856 180.575 236.928 166.59C211.425 187.979 189.83 209.574 172.143 231.375C154.455 252.764 140.676 273.948 130.804 294.926C140.264 301.918 151.576 305.415 164.739 305.415Z" fill="white"/>
<path d="M236.489 124.67C237.379 120.589 243.142 120.433 244.253 124.459L250.075 145.563C250.47 146.995 251.626 148.09 253.078 148.407L274.466 153.075C278.547 153.965 278.703 159.728 274.677 160.839L253.574 166.661C252.141 167.056 251.046 168.212 250.729 169.664L246.062 191.052C245.171 195.133 239.408 195.289 238.298 191.263L232.476 170.16C232.08 168.727 230.924 167.632 229.472 167.315L208.084 162.648C204.003 161.757 203.847 155.995 207.873 154.884L228.977 149.062C230.409 148.667 231.504 147.51 231.821 146.059L236.489 124.67Z" fill="white"/>
<path d="M33.6028 94.0906C33.783 93.0061 35.3265 92.9642 35.5654 94.0372L37.7344 103.783C37.823 104.181 38.1443 104.485 38.5466 104.552L48.3958 106.189C49.4802 106.369 49.5221 107.913 48.4491 108.152L38.7033 110.321C38.3053 110.409 38.0009 110.731 37.934 111.133L36.2973 120.982C36.1171 122.066 34.5735 122.108 34.3347 121.035L32.1657 111.29C32.0771 110.891 31.7557 110.587 31.3535 110.52L21.5043 108.884C20.4199 108.703 20.378 107.16 21.451 106.921L31.1968 104.752C31.5948 104.663 31.8992 104.342 31.966 103.94L33.6028 94.0906Z" fill="white"/>
<path d="M165.15 42.2682C165.331 41.1838 166.874 41.1418 167.113 42.2148L170.496 57.4146C170.585 57.8126 170.906 58.1169 171.308 58.1838L186.669 60.7365C187.753 60.9167 187.795 62.4602 186.722 62.6991L171.523 66.0819C171.125 66.1705 170.82 66.4919 170.753 66.8941L168.201 82.255C168.021 83.3395 166.477 83.3814 166.238 82.3084L162.855 67.1087C162.767 66.7106 162.445 66.4063 162.043 66.3394L146.682 63.7867C145.598 63.6065 145.556 62.063 146.629 61.8242L161.829 58.4413C162.227 58.3527 162.531 58.0313 162.598 57.6291L165.15 42.2682Z" fill="white"/>
</svg>
