<svg width="962" height="431" viewBox="0 0 962 431" fill="none" xmlns="http://www.w3.org/2000/svg">
<path d="M636.551 82.6749C638.448 80.6061 642.063 82.4898 641.421 85.2128L636.922 104.31C636.694 105.279 637.048 106.312 637.841 106.994L653.476 120.435C655.705 122.352 653.901 125.758 651.045 125.024L631.016 119.879C630 119.618 628.941 119.916 628.266 120.651L614.963 135.16C613.067 137.229 609.452 135.345 610.094 132.622L614.592 113.525C614.82 112.556 614.467 111.523 613.674 110.841L598.039 97.3998C595.81 95.4833 597.614 92.0774 600.47 92.811L620.499 97.9561C621.515 98.2171 622.574 97.9197 623.248 97.1838L636.551 82.6749Z" fill="white"/>
<path d="M170.849 381.928C169.465 381.241 168.081 380.727 166.697 380.383C165.313 380.04 163.757 379.526 162.027 378.839C143.691 372.663 130.545 362.883 122.588 349.5C94.2195 345.382 71.3864 335.259 54.0886 319.131C36.0989 301.63 27.1041 278.811 27.1041 250.672C27.1041 212.926 40.9423 180.326 68.6188 152.874C95.9493 125.765 128.815 112.211 167.216 112.211C194.201 112.211 215.477 119.245 231.045 133.314C238.656 127.481 247.997 120.275 259.068 111.696C270.484 102.774 283.63 92.4794 298.506 80.8122V71.0324C298.506 27.4521 308.712 5.66202 329.124 5.66202C333.967 5.66202 338.291 7.54935 342.097 11.324C346.248 14.7555 348.324 18.8733 348.324 23.6775C348.324 37.4035 334.313 56.4484 306.291 80.8122C306.982 85.6163 308.539 92.9941 310.961 102.945C313.383 112.554 316.842 124.564 321.34 138.976C328.605 162.997 332.237 182.9 332.237 198.685C332.237 243.294 312.172 280.526 272.041 310.381C234.678 337.49 192.99 351.044 146.978 351.044C144.21 351.044 141.27 350.872 138.156 350.529C135.042 350.529 132.102 350.358 129.334 350.015C136.253 361.339 146.805 369.403 160.989 374.207C164.103 375.579 166.351 376.266 167.735 376.266C168.773 376.266 170.849 375.751 173.962 374.722C176.73 373.692 178.633 373.177 179.671 373.177C181.746 373.177 182.784 374.207 182.784 376.266C182.784 380.04 178.806 381.928 170.849 381.928ZM305.253 74.6355C330.853 52.3306 343.654 34.4867 343.654 21.1038C343.654 14.2408 339.156 10.8093 330.161 10.8093C313.21 10.8093 304.734 27.2806 304.734 60.2231C304.734 62.6252 304.734 65.0272 304.734 67.4293C304.734 69.4882 304.907 71.8903 305.253 74.6355ZM125.183 341.779C146.286 341.779 168.946 335.602 193.163 323.249C203.888 317.758 214.093 311.753 223.78 305.233C233.813 298.37 243.154 290.821 251.802 282.585C264.603 270.575 273.252 259.766 277.749 250.157C294.701 217.558 303.177 183.929 303.177 149.271C303.177 151.673 302.831 147.727 302.139 137.432C301.447 127.138 300.409 110.323 299.025 86.9889C291.76 92.4793 282.765 99.514 272.041 108.093C261.662 116.328 249.381 126.108 235.197 137.432C246.959 149.099 252.84 163.512 252.84 180.669C252.84 203.66 244.537 223.22 227.931 239.348C210.98 255.819 190.914 264.055 167.735 264.055C154.589 264.055 143.691 261.138 135.042 255.305C125.01 277.953 119.993 297.684 119.993 314.498C119.993 319.646 120.512 324.45 121.55 328.911C122.588 333.715 123.799 338.004 125.183 341.779ZM119.474 341.779C116.361 334.573 114.804 326.166 114.804 316.557C114.804 297.684 119.993 275.894 130.372 251.187C122.069 243.294 117.917 233.686 117.917 222.362C117.917 218.244 118.955 213.44 121.031 207.95C123.799 200.744 126.566 197.141 129.334 197.141C130.026 197.141 130.718 197.484 131.41 198.17C130.718 200.229 129.853 201.43 128.815 201.773H129.334C124.491 208.636 122.069 215.842 122.069 223.392C122.069 232.314 125.356 240.206 131.929 247.069C147.497 212.411 177.595 176.895 222.223 140.521C207.001 126.451 187.801 119.417 164.622 119.417C132.102 119.417 102.522 133.829 75.8839 162.654C49.9372 190.449 36.9638 220.818 36.9638 253.761C36.9638 276.752 44.9208 296.826 60.8348 313.984C68.7917 322.562 77.6136 329.082 87.3004 333.543C96.9872 338.347 107.712 341.093 119.474 341.779ZM165.659 260.452C184.341 260.452 201.639 252.045 217.553 235.23C233.467 218.416 241.424 200.915 241.424 182.728C241.424 169.002 236.407 156.306 226.375 144.638C204.925 162.482 186.763 180.498 171.887 198.685C157.011 216.529 145.421 234.201 137.118 251.702C145.075 257.535 154.589 260.452 165.659 260.452Z" fill="white"/>
<path d="M340.183 337.146L339.145 336.632C359.903 268.001 387.406 201.945 421.656 138.462C471.474 46.1539 518.524 0 562.806 0C579.066 0 587.196 7.89249 587.196 23.6775C587.196 42.5508 576.471 64.1693 555.022 88.5331C537.032 108.093 517.832 123.878 497.42 135.888C481.506 145.153 463.171 153.389 442.413 160.595C439.3 161.624 437.051 161.968 435.667 161.624C424.943 180.498 415.256 198.856 406.607 216.7C398.304 234.544 390.866 252.045 384.293 269.202C398.823 241.75 414.391 218.588 430.997 199.714C454.868 172.605 477.355 159.051 498.458 159.051C515.756 159.051 524.405 165.227 524.405 177.581C524.405 189.591 512.815 212.068 489.636 245.01C469.225 273.492 459.019 296.14 459.019 312.954C459.019 321.533 462.825 325.822 470.436 325.822C476.317 325.822 483.063 323.935 490.674 320.16C498.285 316.386 506.242 310.209 514.545 301.63C525.27 289.963 533.4 279.154 538.935 269.202C544.816 259.251 550.006 250.157 554.503 241.922C555.541 240.206 556.579 239.52 557.617 239.863C558.655 240.206 558.828 241.236 558.136 242.951C552.946 253.589 546.719 264.741 539.454 276.409C532.535 287.733 525.27 297.341 517.659 305.233C507.972 315.528 498.285 322.562 488.598 326.337C479.258 330.112 470.09 331.999 461.095 331.999C442.759 331.999 433.591 323.249 433.591 305.748C433.591 290.306 439.646 272.462 451.754 252.216C454.522 247.755 458.673 241.579 464.209 233.686C470.09 225.794 477.355 216.185 486.004 204.861C498.112 188.733 504.166 178.267 504.166 173.463C504.166 167.286 500.188 164.198 492.231 164.198C477.009 164.198 458.846 175.694 437.743 198.685C423.559 214.127 410.412 232.142 398.304 252.731C392.769 261.996 387.06 272.977 381.179 285.674C375.298 298.37 369.071 312.783 362.497 328.911L361.46 329.426C358.692 327.71 356.097 326.852 353.676 326.852C347.448 326.852 342.951 330.283 340.183 337.146ZM438.262 156.992C439.646 156.992 441.03 156.82 442.413 156.477C450.37 154.761 458.5 152.016 466.803 148.241C475.452 144.467 484.101 139.834 492.75 134.344C502.091 128.167 511.432 121.133 520.772 113.24C530.113 105.004 539.454 95.7393 548.795 85.4447C571.628 60.7378 583.044 39.8056 583.044 22.648C583.044 10.6377 576.99 4.63255 564.882 4.63255C548.968 4.63255 525.443 25.9079 494.307 68.4587C484.966 81.4985 475.452 95.3961 465.765 110.152C456.425 124.907 447.257 140.521 438.262 156.992Z" fill="white"/>
<path d="M573.031 334.058C550.197 334.058 538.781 321.533 538.781 296.483C538.781 278.296 544.143 259.079 554.868 238.834L593.788 163.169H595.345C596.383 164.541 598.458 165.227 601.572 165.227C608.145 165.227 616.794 161.281 627.519 153.389L628.557 154.418L584.447 239.348C566.111 274.35 556.944 298.713 556.944 312.439C556.944 318.616 558.673 322.906 562.133 325.308C565.593 327.71 569.571 328.911 574.068 328.911C578.912 328.911 583.582 327.881 588.08 325.822C592.923 323.763 597.075 321.533 600.534 319.131C609.875 311.925 617.659 303.689 623.886 294.424C630.459 284.816 636.168 275.208 641.011 265.599C645.854 255.991 650.179 247.927 653.984 241.407C655.022 239.691 656.06 239.177 657.098 239.863C658.136 240.206 658.309 241.236 657.617 242.951C650.698 257.364 643.087 272.119 634.784 287.218C626.481 302.317 615.929 314.327 603.129 323.249C598.631 326.337 593.788 328.911 588.599 330.97C583.755 333.029 578.566 334.058 573.031 334.058Z" fill="white"/>
<path d="M609.555 346.411L609.036 345.382C621.49 318.616 637.577 281.556 657.297 234.201C660.41 226.308 664.043 216.529 668.194 204.861C672.692 193.194 677.708 179.64 683.243 164.198H684.281C687.741 166.943 690.681 168.316 693.103 168.316C701.752 168.316 709.882 160.938 717.493 146.183V146.697C717.493 147.384 709.882 165.742 694.66 201.773C686.357 221.333 680.13 236.26 675.978 246.554C671.827 256.849 669.405 262.683 668.713 264.055C708.152 193.709 739.634 158.536 763.159 158.536C768.348 158.536 773.019 160.252 777.17 163.683C781.322 167.115 783.397 171.576 783.397 177.066C783.397 191.479 773.538 215.156 753.818 248.099C734.099 281.041 724.239 303.518 724.239 315.528C724.239 319.989 725.969 323.42 729.428 325.822C732.888 328.224 737.039 329.426 741.883 329.426C746.726 329.426 751.742 328.396 756.932 326.337C762.121 324.278 766.446 322.048 769.905 319.646C779.246 312.439 787.203 304.032 793.776 294.424C800.349 284.816 806.058 275.208 810.901 265.599C815.744 255.991 820.069 247.927 823.874 241.407C824.912 239.691 825.95 239.177 826.988 239.863C828.026 240.206 828.199 241.236 827.507 242.951C820.588 257.364 812.977 272.119 804.674 287.218C796.371 302.317 785.819 314.327 773.019 323.249C768.521 326.337 763.505 328.911 757.97 330.97C752.78 333.029 747.245 334.058 741.364 334.058C731.677 334.058 723.72 331.484 717.493 326.337C711.612 321.19 708.671 313.297 708.671 302.66C708.671 284.129 717.32 260.795 734.618 232.657C752.261 203.832 761.083 185.645 761.083 178.096C761.083 172.262 757.797 169.345 751.224 169.345H748.11C740.499 169.345 730.12 178.096 716.974 195.596C703.828 212.754 687.914 238.147 669.232 271.776C664.735 279.325 660.064 288.076 655.221 298.027C650.723 307.635 645.88 318.445 640.691 330.455L639.653 330.97C635.501 328.911 631.869 327.881 628.755 327.881C624.258 327.881 620.452 330.627 617.339 336.117C614.571 341.951 611.976 345.382 609.555 346.411Z" fill="white"/>
<path d="M857.694 334.058C840.742 334.058 828.98 329.425 822.407 320.16C815.834 310.552 812.547 297.169 812.547 280.012C812.547 255.305 822.926 229.568 843.683 202.803C865.824 174.664 888.83 160.595 912.701 160.595C930.345 160.595 939.167 166.6 939.167 178.61C939.167 193.366 931.037 208.808 914.777 224.936C891.598 248.27 867.208 259.937 841.607 259.937C837.456 270.575 835.38 281.213 835.38 291.85C835.38 303.518 837.629 312.611 842.126 319.131C846.624 325.651 853.197 328.911 861.846 328.911C870.841 328.911 880.181 326.509 889.868 321.705C899.555 316.557 907.858 310.552 914.777 303.689C920.658 297.856 927.231 289.963 934.496 280.012C942.107 269.717 949.718 257.192 957.33 242.437C958.367 240.721 959.405 239.863 960.443 239.863C962.519 239.863 962.519 241.579 960.443 245.01C954.562 256.677 948.162 267.83 941.243 278.467C934.669 289.105 925.848 299.4 914.777 309.351C908.204 315.871 899.901 321.705 889.868 326.852C879.835 331.656 869.111 334.058 857.694 334.058ZM842.126 256.334C861.154 256.334 882.43 246.211 905.955 225.965V225.451C912.528 219.96 918.755 212.411 924.637 202.803C931.556 192.165 935.015 183.071 935.015 175.522C935.015 170.032 930.864 167.286 922.561 167.286C909.415 167.286 893.501 178.954 874.819 202.288C866.17 212.582 859.251 222.191 854.062 231.113C848.872 240.035 844.894 248.442 842.126 256.334Z" fill="white"/>
<path d="M424.762 417.756V375.25C424.762 373.737 424.274 372.517 423.299 371.592C422.367 370.667 421.138 370.205 419.612 370.205V369.574H426.097C428.598 369.574 430.315 369.343 431.247 368.88C432.18 368.418 432.858 367.85 433.282 367.178H433.918V390.134C434.892 388.242 436.249 386.728 437.987 385.593C439.767 384.458 441.717 383.89 443.836 383.89C446.337 383.89 448.562 384.626 450.512 386.097C452.462 387.569 453.988 389.566 455.09 392.089C456.234 394.611 456.807 397.491 456.807 400.729C456.807 404.092 456.171 407.056 454.899 409.621C453.67 412.185 451.932 414.183 449.686 415.612C447.439 417.041 444.811 417.756 441.802 417.756C436.757 417.756 433.366 415.675 431.629 411.513L425.398 417.756H424.762ZM439.958 416.684C442.204 416.684 443.9 415.297 445.044 412.522C446.189 409.747 446.761 405.669 446.761 400.287C446.761 395.578 446.316 392.089 445.426 389.818C444.536 387.548 443.137 386.413 441.229 386.413C439.534 386.413 438.029 387.022 436.715 388.242C435.443 389.461 434.511 390.827 433.918 392.341V408.17C434.087 410.777 434.702 412.858 435.761 414.414C436.821 415.927 438.22 416.684 439.958 416.684Z" fill="white"/>
<path d="M459.668 431C457.93 431 456.256 430.664 454.645 429.991L457.125 422.612C458.185 423.033 459.329 423.39 460.558 423.684C461.83 423.979 463.102 424.126 464.373 424.126C465.984 424.126 467.489 423.789 468.887 423.117C470.329 422.486 471.409 421.288 472.13 419.522L472.829 417.819L460.241 388.872C459.817 387.863 459.266 387.064 458.587 386.476C457.867 385.845 456.892 385.509 455.663 385.467V384.836H474.038V385.467C472.893 385.593 472.003 385.992 471.367 386.665C470.774 387.338 470.477 388.2 470.477 389.251C470.477 390.176 470.689 391.122 471.113 392.089L477.534 407.035L483.956 392.089C484.38 391.122 484.592 390.176 484.592 389.251C484.592 388.2 484.274 387.338 483.638 386.665C483.045 385.992 482.155 385.593 480.968 385.467V384.836H489.742V385.467C488.767 385.677 487.941 386.308 487.262 387.359C486.584 388.368 485.864 389.755 485.101 391.521L472.13 421.414C470.774 424.525 469.015 426.901 466.853 428.54C464.691 430.18 462.296 431 459.668 431Z" fill="white"/>
<path d="M500.941 416.873V416.243H501.004C502.53 416.243 503.759 415.843 504.692 415.044C505.624 414.246 506.091 413.089 506.091 411.576V375.25C506.091 373.737 505.624 372.517 504.692 371.592C503.759 370.667 502.53 370.205 501.004 370.205H500.941V369.574H521.223V370.205H520.969C519.443 370.205 518.213 370.667 517.281 371.592C516.348 372.517 515.882 373.737 515.882 375.25V411.828C515.882 413.173 516.2 414.225 516.836 414.981C517.514 415.696 518.68 416.053 520.333 416.053H521.668C525.44 416.053 528.62 414.897 531.205 412.585C533.791 410.272 535.423 407.014 536.101 402.81H536.737L534.829 416.873H500.941Z" fill="white"/>
<path d="M562.211 418.639L562.148 410.504C561.046 412.648 559.371 414.393 557.125 415.738C554.878 417.083 552.505 417.756 550.004 417.756C547.164 417.756 544.875 416.831 543.137 414.981C541.442 413.131 540.594 410.693 540.594 407.666V390.512C540.594 388.914 540.276 387.674 539.64 386.791C539.004 385.908 537.605 385.467 535.444 385.467V384.836H541.865C544.027 384.836 545.68 384.605 546.825 384.142C547.884 383.68 548.626 383.112 549.05 382.44H549.686V408.296C549.686 410.399 550.11 412.08 550.957 413.342C551.805 414.603 552.907 415.234 554.264 415.234C555.578 415.234 556.934 414.687 558.333 413.594C559.732 412.459 560.961 410.945 562.02 409.053V390.512C562.02 388.998 561.639 387.779 560.876 386.854C560.113 385.929 558.799 385.467 556.934 385.467V384.836H563.356C565.517 384.836 567.171 384.605 568.315 384.142C569.417 383.68 570.18 383.112 570.604 382.44H571.24L571.176 411.197C571.176 412.711 571.642 413.951 572.575 414.918C573.507 415.843 574.737 416.306 576.263 416.306V416.873H569.968C568.866 416.873 567.891 416.894 567.043 416.936C566.196 417.02 565.496 417.105 564.945 417.189C563.801 417.441 562.995 417.924 562.529 418.639H562.211Z" fill="white"/>
<path d="M591.182 417.756C588.3 417.756 585.735 417.062 583.489 415.675C581.242 414.246 579.483 412.269 578.212 409.747C576.983 407.224 576.368 404.344 576.368 401.107C576.368 397.743 577.067 394.779 578.466 392.215C579.865 389.608 581.772 387.59 584.188 386.16C586.647 384.689 589.402 383.953 592.454 383.953C596.014 383.953 598.96 384.92 601.292 386.854C603.665 388.746 605.085 391.332 605.552 394.611L597.922 398.837C597.922 394.548 597.371 391.143 596.269 388.62C595.167 386.139 593.62 384.899 591.627 384.899C590.271 384.899 589.084 385.446 588.067 386.539C587.092 387.632 586.329 389.103 585.778 390.953C585.269 392.803 585.015 394.863 585.015 397.134C585.015 400.035 585.46 402.599 586.35 404.828C587.24 407.014 588.491 408.738 590.101 409.999C591.712 411.218 593.62 411.828 595.824 411.828C597.858 411.828 599.787 411.324 601.61 410.314C603.475 409.305 605 407.939 606.187 406.215L606.823 406.404C606.103 408.675 604.958 410.672 603.39 412.396C601.821 414.077 599.978 415.402 597.858 416.369C595.781 417.294 593.556 417.756 591.182 417.756Z" fill="white"/>
<path d="M609.12 431C607.383 431 605.708 430.664 604.098 429.991L606.577 422.612C607.637 423.033 608.781 423.39 610.011 423.684C611.282 423.979 612.554 424.126 613.826 424.126C615.436 424.126 616.941 423.789 618.34 423.117C619.781 422.486 620.862 421.288 621.582 419.522L622.282 417.819L609.693 388.872C609.269 387.863 608.718 387.064 608.04 386.476C607.319 385.845 606.344 385.509 605.115 385.467V384.836H623.49V385.467C622.345 385.593 621.455 385.992 620.819 386.665C620.226 387.338 619.929 388.2 619.929 389.251C619.929 390.176 620.141 391.122 620.565 392.089L626.987 407.035L633.408 392.089C633.832 391.122 634.044 390.176 634.044 389.251C634.044 388.2 633.726 387.338 633.09 386.665C632.497 385.992 631.607 385.593 630.42 385.467V384.836H639.194V385.467C638.219 385.677 637.393 386.308 636.715 387.359C636.036 388.368 635.316 389.755 634.553 391.521L621.582 421.414C620.226 424.525 618.467 426.901 616.305 428.54C614.143 430.18 611.748 431 609.12 431Z" fill="white"/>
<path d="M9.05034 137.87C8.89571 136.705 10.4738 136.181 11.0569 137.204L16.3522 146.494C16.5685 146.874 16.9953 147.085 17.431 147.028L28.0984 145.635C29.2729 145.481 29.8007 147.047 28.7694 147.625L19.4033 152.878C19.0208 153.092 18.8079 153.515 18.8652 153.948L20.2697 164.529C20.4243 165.693 18.8462 166.217 18.2632 165.194L12.9678 155.904C12.7515 155.524 12.3247 155.313 11.889 155.37L1.22164 156.763C0.047135 156.917 -0.480632 155.351 0.550598 154.773L9.91673 149.521C10.2992 149.306 10.5121 148.883 10.4548 148.451L9.05034 137.87Z" fill="white"/>
<path d="M159.802 57.982C160.134 56.854 161.791 57.0054 161.909 58.1746L163.583 74.7361C163.627 75.1698 163.932 75.5336 164.354 75.6556L180.464 80.3148C181.601 80.6437 181.448 82.2873 180.27 82.4046L163.573 84.0654C163.136 84.1089 162.769 84.4114 162.646 84.8298L157.948 100.809C157.617 101.937 155.96 101.786 155.842 100.616L154.167 84.0549C154.123 83.6212 153.818 83.2574 153.397 83.1354L137.287 78.4761C136.15 78.1472 136.302 76.5036 137.481 76.3864L154.178 74.7255C154.615 74.682 154.982 74.3796 155.105 73.9612L159.802 57.982Z" fill="white"/>
</svg>
