<svg width="1247" height="575" viewBox="0 0 1247 575" fill="none" xmlns="http://www.w3.org/2000/svg">
<path d="M812.904 110.297C815.434 107.537 820.255 110.05 819.4 113.683L813.399 139.161C813.095 140.453 813.567 141.832 814.624 142.741L835.479 160.674C838.452 163.231 836.046 167.774 832.236 166.796L805.52 159.932C804.165 159.583 802.753 159.98 801.853 160.962L784.109 180.318C781.579 183.078 776.758 180.565 777.614 176.932L783.614 151.454C783.919 150.162 783.447 148.784 782.389 147.874L761.535 129.942C758.561 127.385 760.968 122.841 764.777 123.82L791.493 130.684C792.848 131.032 794.26 130.635 795.16 129.654L812.904 110.297Z" fill="#0a0a0a"/>
<path d="M191.732 509.532C189.886 508.617 188.041 507.93 186.195 507.472C184.349 507.014 182.272 506.328 179.965 505.412C155.508 497.172 137.973 484.124 127.36 466.27C89.5212 460.777 59.0655 447.271 35.993 425.755C11.9977 402.407 0 371.963 0 334.423C0 284.065 18.458 240.574 55.3739 203.95C91.8284 167.784 135.666 149.701 186.887 149.701C222.88 149.701 251.259 159.086 272.024 177.856C282.176 170.073 294.635 160.459 309.402 149.014C324.63 137.111 342.165 123.377 362.007 107.812V94.7648C362.007 36.6241 375.62 7.55374 402.845 7.55374C409.306 7.55374 415.074 10.0716 420.15 15.1074C425.687 19.6854 428.456 25.179 428.456 31.5883C428.456 49.9003 409.767 75.3083 372.39 107.812C373.313 114.221 375.389 124.064 378.619 137.34C381.849 150.159 386.464 166.182 392.463 185.409C402.153 217.455 406.998 244.008 406.998 265.067C406.998 324.581 380.234 374.252 326.706 414.081C276.87 450.247 221.265 468.33 159.892 468.33C156.201 468.33 152.278 468.101 148.125 467.644C143.972 467.644 140.05 467.415 136.358 466.957C145.587 482.064 159.661 492.823 178.581 499.232C182.734 501.063 185.733 501.979 187.579 501.979C188.963 501.979 191.732 501.292 195.885 499.919C199.577 498.545 202.115 497.858 203.499 497.858C206.268 497.858 207.652 499.232 207.652 501.979C207.652 507.014 202.346 509.532 191.732 509.532ZM371.005 99.5717C405.152 69.8146 422.226 46.009 422.226 28.1548C422.226 18.9987 416.227 14.4207 404.23 14.4207C381.619 14.4207 370.313 36.3952 370.313 80.3441C370.313 83.5487 370.313 86.7533 370.313 89.9579C370.313 92.7047 370.544 95.9093 371.005 99.5717ZM130.821 455.97C158.969 455.97 189.194 447.729 221.496 431.248C235.801 423.924 249.413 415.912 262.334 407.214C275.716 398.058 288.175 387.986 299.711 376.999C316.785 360.976 328.321 346.555 334.32 333.737C356.931 290.246 368.237 245.381 368.237 199.143C368.237 202.348 367.775 197.083 366.852 183.349C365.929 169.615 364.545 147.183 362.699 116.053C353.009 123.377 341.011 132.762 326.706 144.207C312.863 155.194 296.481 168.242 277.562 183.349C293.251 198.914 301.096 218.142 301.096 241.032C301.096 271.705 290.021 297.799 267.871 319.316C245.26 341.291 218.496 352.278 187.579 352.278C170.044 352.278 155.508 348.386 143.972 340.604C130.59 370.819 123.899 397.142 123.899 419.574C123.899 426.441 124.591 432.851 125.976 438.802C127.36 445.211 128.975 450.934 130.821 455.97ZM123.207 455.97C119.054 446.356 116.977 435.14 116.977 422.321C116.977 397.142 123.899 368.072 137.743 335.11C126.668 324.581 121.13 311.762 121.13 296.655C121.13 291.161 122.515 284.752 125.283 277.427C128.975 267.813 132.667 263.007 136.358 263.007C137.281 263.007 138.204 263.464 139.127 264.38C138.204 267.127 137.05 268.729 135.666 269.187H136.358C129.898 278.343 126.668 287.957 126.668 298.028C126.668 309.931 131.052 320.461 139.819 329.617C160.584 283.379 200.73 235.996 260.257 187.469C239.954 168.7 214.343 159.315 183.426 159.315C140.05 159.315 100.596 178.542 65.0643 216.998C30.4557 254.079 13.1513 294.595 13.1513 338.544C13.1513 369.216 23.7646 395.998 44.9913 418.888C55.6046 430.333 67.3716 439.031 80.2922 444.982C93.2128 451.392 107.518 455.054 123.207 455.97ZM184.81 347.471C209.729 347.471 232.801 336.255 254.028 313.822C275.254 291.39 285.868 268.042 285.868 243.779C285.868 225.467 279.177 208.528 265.795 192.963C237.185 216.769 212.959 240.803 193.117 265.067C173.274 288.872 157.816 312.449 146.741 335.797C157.354 343.58 170.044 347.471 184.81 347.471Z" fill="#0a0a0a"/>
<path d="M417.597 449.789L416.213 449.103C443.9 357.542 480.585 269.416 526.268 184.723C592.717 61.5742 655.474 0 714.54 0C736.228 0 747.072 10.5294 747.072 31.5883C747.072 56.7673 732.767 85.6087 704.157 118.113C680.162 144.207 654.551 165.266 627.326 181.289C606.099 193.65 581.642 204.637 553.955 214.251C549.802 215.624 546.803 216.082 544.957 215.624C530.652 240.803 517.732 265.296 506.195 289.101C495.121 312.907 485.199 336.255 476.432 359.145C495.813 322.521 516.578 291.619 538.728 266.44C570.568 230.274 600.562 212.191 628.71 212.191C651.783 212.191 663.319 220.431 663.319 236.912C663.319 252.935 647.86 282.921 616.943 326.87C589.718 364.867 576.105 395.082 576.105 417.514C576.105 428.959 581.181 434.682 591.333 434.682C599.177 434.682 608.176 432.164 618.328 427.128C628.48 422.092 639.093 413.852 650.168 402.407C664.473 386.842 675.317 372.421 682.7 359.145C690.544 345.869 697.466 333.737 703.465 322.75C704.849 320.461 706.234 319.545 707.618 320.003C709.002 320.461 709.233 321.834 708.31 324.123C701.389 338.315 693.082 353.193 683.392 368.759C674.163 383.866 664.473 396.684 654.321 407.214C641.4 420.948 628.479 430.333 615.559 435.369C603.1 440.404 590.871 442.922 578.874 442.922C554.417 442.922 542.188 431.248 542.188 407.901C542.188 387.299 550.264 363.494 566.415 336.484C570.106 330.532 575.644 322.292 583.027 311.762C590.871 301.233 600.562 288.415 612.098 273.307C628.249 251.79 636.324 237.828 636.324 231.418C636.324 223.178 631.017 219.058 620.404 219.058C600.1 219.058 575.874 234.394 547.726 265.067C528.806 285.668 511.271 309.702 495.121 337.17C487.737 349.531 480.124 364.181 472.279 381.119C464.434 398.058 456.128 417.285 447.361 438.802L445.976 439.489C442.285 437.2 438.824 436.055 435.594 436.055C427.288 436.055 421.289 440.633 417.597 449.789ZM548.418 209.444C550.264 209.444 552.11 209.215 553.955 208.757C564.569 206.468 575.413 202.806 586.488 197.77C598.024 192.734 609.56 186.554 621.096 179.229C633.555 170.989 646.015 161.604 658.474 151.074C670.933 140.087 683.392 127.726 695.851 113.992C726.307 81.0308 741.535 53.1049 741.535 30.2149C741.535 14.1918 733.459 6.18031 717.308 6.18031C696.082 6.18031 664.703 34.564 623.173 91.3313C610.714 108.728 598.024 127.269 585.103 146.954C572.644 166.64 560.416 187.469 548.418 209.444Z" fill="#0a0a0a"/>
<path d="M728.178 445.669C697.722 445.669 682.494 428.959 682.494 395.54C682.494 371.276 689.647 345.64 703.952 318.629L755.865 217.684H757.941C759.326 219.516 762.094 220.431 766.247 220.431C775.015 220.431 786.551 215.166 800.856 204.637L802.24 206.01L743.406 319.316C718.949 366.012 706.72 398.516 706.72 416.828C706.72 425.068 709.028 430.791 713.642 433.995C718.257 437.2 723.563 438.802 729.562 438.802C736.022 438.802 742.252 437.429 748.251 434.682C754.711 431.935 760.248 428.959 764.863 425.755C777.322 416.141 787.705 405.154 796.011 392.793C804.778 379.975 812.392 367.156 818.853 354.338C825.313 341.519 831.081 330.761 836.157 322.063C837.541 319.774 838.926 319.087 840.31 320.003C841.694 320.461 841.925 321.834 841.002 324.123C831.773 343.351 821.621 363.036 810.547 383.179C799.472 403.323 785.397 419.346 768.324 431.248C762.325 435.369 755.865 438.802 748.943 441.549C742.483 444.296 735.561 445.669 728.178 445.669Z" fill="#0a0a0a"/>
<path d="M776.895 462.15L776.203 460.776C792.815 425.068 814.272 375.626 840.575 312.449C844.728 301.92 849.573 288.872 855.11 273.307C861.109 257.742 867.8 239.659 875.184 219.058H876.568C881.182 222.72 885.105 224.551 888.335 224.551C899.871 224.551 910.715 214.709 920.867 195.023V195.71C920.867 196.625 910.715 221.118 890.411 269.187C879.337 295.282 871.03 315.196 865.493 328.93C859.956 342.664 856.726 350.447 855.803 352.278C908.408 258.429 950.4 211.504 981.778 211.504C988.7 211.504 994.93 213.793 1000.47 218.371C1006 222.949 1008.77 228.9 1008.77 236.225C1008.77 255.453 995.622 287.041 969.319 330.99C943.017 374.939 929.865 404.925 929.865 420.948C929.865 426.899 932.173 431.477 936.787 434.682C941.402 437.886 946.939 439.489 953.399 439.489C959.86 439.489 966.55 438.115 973.472 435.369C980.394 432.622 986.162 429.646 990.777 426.441C1003.24 416.828 1013.85 405.612 1022.62 392.793C1031.38 379.975 1039 367.156 1045.46 354.338C1051.92 341.519 1057.69 330.761 1062.76 322.063C1064.15 319.774 1065.53 319.087 1066.92 320.003C1068.3 320.461 1068.53 321.834 1067.61 324.123C1058.38 343.351 1048.23 363.036 1037.15 383.179C1026.08 403.323 1012 419.346 994.93 431.248C988.931 435.369 982.24 438.802 974.857 441.549C967.935 444.296 960.552 445.669 952.707 445.669C939.787 445.669 929.173 442.236 920.867 435.369C913.022 428.502 909.1 417.972 909.1 403.78C909.1 379.059 920.636 347.929 943.709 310.389C967.243 271.934 979.01 247.67 979.01 237.599C979.01 229.816 974.626 225.925 965.858 225.925H961.705C951.553 225.925 937.71 237.599 920.175 260.947C902.64 283.837 881.413 317.714 856.495 362.578C850.496 372.65 844.267 384.324 837.806 397.6C831.807 410.418 825.347 424.839 818.425 440.862L817.041 441.549C811.504 438.802 806.658 437.429 802.505 437.429C796.506 437.429 791.431 441.091 787.277 448.416C783.586 456.199 780.125 460.776 776.895 462.15Z" fill="#0a0a0a"/>
<path d="M1107.87 445.669C1085.26 445.669 1069.57 439.489 1060.81 427.128C1052.04 414.31 1047.65 396.456 1047.65 373.565C1047.65 340.604 1061.5 306.269 1089.18 270.56C1118.72 233.021 1149.4 214.251 1181.24 214.251C1204.78 214.251 1216.54 222.262 1216.54 238.285C1216.54 257.971 1205.7 278.572 1184.01 300.088C1153.09 331.219 1120.56 346.784 1086.42 346.784C1080.88 360.976 1078.11 375.168 1078.11 389.36C1078.11 404.925 1081.11 417.057 1087.11 425.755C1093.11 434.453 1101.87 438.802 1113.41 438.802C1125.41 438.802 1137.87 435.598 1150.79 429.188C1163.71 422.321 1174.78 414.31 1184.01 405.154C1207.54 381.816 1225.68 352.706 1240.77 323.436C1242.15 321.147 1243.54 320.003 1244.92 320.003C1247.69 320.003 1247.69 322.292 1244.92 326.87C1237.08 342.435 1228.54 357.314 1219.31 371.505C1210.55 385.697 1198.78 399.431 1184.01 412.707C1175.24 421.406 1164.17 429.188 1150.79 436.055C1137.41 442.464 1123.1 445.669 1107.87 445.669ZM1087.11 341.977C1112.49 341.977 1140.87 328.472 1172.25 301.462V300.775C1181.01 293.45 1189.32 283.379 1197.16 270.56C1206.39 256.368 1211.01 244.237 1211.01 234.165C1211.01 226.84 1205.47 223.178 1194.39 223.178C1176.86 223.178 1155.63 238.743 1130.71 269.874C1119.18 283.608 1109.95 296.426 1103.03 308.329C1096.11 320.232 1090.8 331.448 1087.11 341.977Z" fill="#0a0a0a"/>
<path d="M530.411 557.331V500.624C530.411 498.604 529.761 496.978 528.461 495.744C527.217 494.51 525.577 493.893 523.542 493.893V493.051H532.192C535.528 493.051 537.818 492.743 539.061 492.126C540.305 491.509 541.21 490.752 541.775 489.854H542.623V520.48C543.924 517.956 545.733 515.936 548.051 514.422C550.426 512.908 553.026 512.15 555.853 512.15C559.189 512.15 562.157 513.132 564.758 515.095C567.359 517.058 569.394 519.723 570.864 523.088C572.39 526.453 573.154 530.296 573.154 534.615C573.154 539.102 572.306 543.056 570.61 546.478C568.97 549.899 566.652 552.564 563.655 554.471C560.659 556.378 557.154 557.331 553.139 557.331C546.411 557.331 541.888 554.555 539.57 549.002L531.259 557.331H530.411ZM550.68 555.901C553.676 555.901 555.938 554.05 557.465 550.348C558.991 546.646 559.754 541.205 559.754 534.026C559.754 527.744 559.161 523.088 557.973 520.059C556.786 517.03 554.92 515.516 552.376 515.516C550.115 515.516 548.108 516.329 546.355 517.956C544.659 519.582 543.415 521.405 542.623 523.425V544.543C542.85 548.02 543.669 550.797 545.083 552.872C546.496 554.891 548.362 555.901 550.68 555.901Z" fill="#0a0a0a"/>
<path d="M576.971 575C574.653 575 572.419 574.551 570.271 573.654L573.578 563.81C574.992 564.371 576.518 564.848 578.158 565.24C579.854 565.633 581.55 565.829 583.246 565.829C585.395 565.829 587.402 565.38 589.268 564.483C591.19 563.642 592.632 562.043 593.593 559.687L594.526 557.416L577.734 518.797C577.169 517.451 576.434 516.385 575.529 515.6C574.568 514.759 573.267 514.31 571.628 514.254V513.412H596.137V514.254C594.61 514.422 593.423 514.955 592.575 515.852C591.784 516.75 591.388 517.9 591.388 519.302C591.388 520.536 591.67 521.798 592.236 523.088L600.801 543.028L609.367 523.088C609.932 521.798 610.215 520.536 610.215 519.302C610.215 517.9 609.791 516.75 608.943 515.852C608.151 514.955 606.964 514.422 605.381 514.254V513.412H617.084V514.254C615.784 514.534 614.681 515.376 613.777 516.778C612.872 518.124 611.911 519.975 610.893 522.331L593.593 562.211C591.784 566.362 589.437 569.531 586.554 571.719C583.67 573.906 580.476 575 576.971 575Z" fill="#0a0a0a"/>
<path d="M632.021 556.154V555.312H632.106C634.142 555.312 635.781 554.779 637.025 553.714C638.269 552.648 638.891 551.105 638.891 549.086V500.624C638.891 498.604 638.269 496.978 637.025 495.744C635.781 494.51 634.142 493.893 632.106 493.893H632.021V493.051H659.075V493.893H658.735C656.7 493.893 655.061 494.51 653.817 495.744C652.573 496.978 651.951 498.604 651.951 500.624V549.423C651.951 551.218 652.375 552.62 653.223 553.629C654.128 554.583 655.682 555.06 657.887 555.06H659.668C664.7 555.06 668.941 553.517 672.389 550.432C675.838 547.347 678.015 543 678.919 537.391H679.768L677.223 556.154H632.021Z" fill="#0a0a0a"/>
<path d="M713.746 558.509L713.662 547.656C712.192 550.516 709.958 552.844 706.962 554.639C703.965 556.434 700.799 557.331 697.464 557.331C693.676 557.331 690.623 556.097 688.305 553.629C686.043 551.161 684.912 547.908 684.912 543.87V520.985C684.912 518.853 684.488 517.199 683.64 516.021C682.792 514.843 680.926 514.254 678.043 514.254V513.412H686.608C689.492 513.412 691.697 513.104 693.223 512.487C694.637 511.87 695.626 511.113 696.191 510.215H697.04V544.711C697.04 547.516 697.605 549.759 698.736 551.442C699.866 553.125 701.336 553.966 703.146 553.966C704.898 553.966 706.708 553.237 708.573 551.778C710.439 550.264 712.079 548.245 713.492 545.721V520.985C713.492 518.965 712.983 517.339 711.966 516.105C710.948 514.871 709.195 514.254 706.708 514.254V513.412H715.273C718.156 513.412 720.361 513.104 721.888 512.487C723.358 511.87 724.376 511.113 724.941 510.215H725.789L725.704 548.581C725.704 550.601 726.326 552.255 727.57 553.545C728.814 554.779 730.453 555.396 732.489 555.396V556.154H724.093C722.623 556.154 721.323 556.182 720.192 556.238C719.061 556.35 718.128 556.462 717.393 556.574C715.867 556.911 714.792 557.556 714.171 558.509H713.746Z" fill="#0a0a0a"/>
<path d="M752.389 557.331C748.545 557.331 745.124 556.406 742.128 554.555C739.131 552.648 736.785 550.011 735.089 546.646C733.449 543.281 732.629 539.438 732.629 535.12C732.629 530.632 733.562 526.678 735.428 523.256C737.294 519.779 739.838 517.086 743.06 515.179C746.34 513.216 750.014 512.234 754.085 512.234C758.834 512.234 762.764 513.525 765.873 516.105C769.039 518.629 770.933 522.078 771.555 526.453L761.379 532.091C761.379 526.369 760.644 521.826 759.174 518.461C757.704 515.151 755.64 513.497 752.983 513.497C751.174 513.497 749.59 514.226 748.234 515.684C746.933 517.142 745.916 519.106 745.181 521.574C744.502 524.042 744.163 526.79 744.163 529.819C744.163 533.689 744.756 537.111 745.944 540.083C747.131 543 748.799 545.3 750.947 546.983C753.096 548.609 755.64 549.423 758.58 549.423C761.294 549.423 763.866 548.749 766.297 547.403C768.785 546.057 770.82 544.234 772.403 541.935L773.252 542.187C772.29 545.216 770.764 547.88 768.672 550.18C766.58 552.423 764.121 554.19 761.294 555.48C758.523 556.714 755.555 557.331 752.389 557.331Z" fill="#0a0a0a"/>
<path d="M776.316 575C773.998 575 771.765 574.551 769.616 573.654L772.924 563.81C774.337 564.371 775.864 564.848 777.503 565.24C779.199 565.633 780.895 565.829 782.592 565.829C784.74 565.829 786.747 565.38 788.613 564.483C790.535 563.642 791.977 562.043 792.938 559.687L793.871 557.416L777.079 518.797C776.514 517.451 775.779 516.385 774.874 515.6C773.913 514.759 772.613 514.31 770.973 514.254V513.412H795.482V514.254C793.956 514.422 792.768 514.955 791.92 515.852C791.129 516.75 790.733 517.9 790.733 519.302C790.733 520.536 791.016 521.798 791.581 523.088L800.147 543.028L808.712 523.088C809.277 521.798 809.56 520.536 809.56 519.302C809.56 517.9 809.136 516.75 808.288 515.852C807.496 514.955 806.309 514.422 804.726 514.254V513.412H816.429V514.254C815.129 514.534 814.026 515.376 813.122 516.778C812.217 518.124 811.256 519.975 810.238 522.331L792.938 562.211C791.129 566.362 788.782 569.531 785.899 571.719C783.016 573.906 779.821 575 776.316 575Z" fill="#0a0a0a"/>
</svg>
